<!DOCTYPE svg PUBLIC "-//W3C//DTD SVG 1.1//EN" "http://www.w3.org/Graphics/SVG/1.1/DTD/svg11.dtd">
<!-- Uploaded to: SVG Repo, www.svgrepo.com, Transformed by: SVG Repo Mixer Tools -->
<svg fill="#eae8ec" version="1.1" id="Layer_1" xmlns="http://www.w3.org/2000/svg" xmlns:xlink="http://www.w3.org/1999/xlink" viewBox="-76.8 -76.8 665.60 665.60" xml:space="preserve" width="800px" height="800px" stroke="#eae8ec" stroke-width="5.12">
<g id="SVGRepo_bgCarrier" stroke-width="0" transform="translate(0,0), scale(1)">
<path transform="translate(-76.8, -76.8), scale(20.8)" d="M16,30.128544995827333C18.04317148235854,29.66379044990347,19.381763804721146,27.789378778715744,21.09979093962233,26.58982500417151C22.570478860840012,25.562967388692257,24.190964059384665,24.8144022543266,25.446176811526385,23.533074633870328C26.778944229307044,22.172578812637845,27.73476276822763,20.558686723687753,28.64619941828456,18.88641249305996C29.779542836889338,16.80699096303262,31.686522562796263,14.826369716220949,31.47727466233809,12.467413056977321C31.271296169738907,10.145314074316646,29.168634138422746,8.470207364438972,27.57160358800958,6.771954071866219C26.054619220736264,5.158820437173498,24.28055356009245,3.8932342380457876,22.36670568718869,2.7793994148739074C20.34426318364371,1.60236391471501,18.302041986953885,-0.3824380074512223,16.000000000000004,0.03742975635188017C13.598746676672278,0.4753926036431516,12.855793334692692,3.845420856858211,10.661417147215346,4.914318478818476C8.481059714200184,5.976387456996974,5.506166325274562,4.624905304218092,3.5737157395669197,6.0903689796163505C1.6802535199973134,7.52626603387511,0.4521241962949547,10.131543619070547,0.6600964367685869,12.498767113918218C0.8754593718005249,14.950114459919408,3.833704007713389,16.27187357924218,4.6714884809052535,18.585658828787018C5.376645602328084,20.53315511019159,4.20158191113338,22.83241932514992,5.080785093430343,24.707783315477364C5.998006645516987,26.66424150918138,7.710057538108273,28.23448282996818,9.645475362341376,29.1953063751442C11.58741614193507,30.15936819218902,13.885927736224765,30.609427145702934,16,30.128544995827333" fill="#472f54" strokewidth="0"/>
</g>
<g id="SVGRepo_tracerCarrier" stroke-linecap="round" stroke-linejoin="round" stroke="#705e7a" stroke-width="22.528"> <g> <g> <path d="M413.4,217.098c-52.807,22.982-43.402,74.765-41.898,114.632l-31.063-28.162c-38.767,17.12-69.482,91.808-33.808,150.306 c20.058,32.882,55.034,52.506,93.562,52.506c43.644,0,84.375-26.765,101.352-66.604C547.152,332.69,418.052,291.521,413.4,217.098 z"/> </g> </g> <g> <g> <rect x="166.957" y="128.056" width="178.087" height="77.913"/> </g> </g> <g> <g> <rect y="239.36" width="239.304" height="77.913"/> </g> </g> <g> <g> <rect y="128.056" width="133.565" height="77.913"/> </g> </g> <g> <g> <path d="M272.696,239.359v77.913h6.926c12.586-20.73,37.175-45.54,58.443-47.01c1.353-10.326,3.827-20.804,8.007-30.903H272.696z"/> </g> </g> <g> <g> <path d="M456.213,239.359c13.436,21.106,36.265,41.914,55.787,68.336v-68.336H456.213z"/> </g> </g> <g> <g> <path d="M264.535,350.663h-97.578v89.043h97.133C255.373,411.469,255.283,380.432,264.535,350.663z"/> </g> </g> <g> <g> <path d="M0,350.663v72.348c0,9.217,7.479,16.696,16.696,16.696h116.87v-89.043H0z"/> </g> </g> <g> <g> <path d="M378.435,128.053v70.567c9.15-6.552,23.677-14.915,34.967-14.915c13.738,0,26.416,8.368,31.352,22.261H512v-77.913 H378.435z"/> </g> </g> <g> <g> <path d="M16.696,5.62C7.479,5.62,0,13.098,0,22.315v72.348h239.304V5.62H16.696z"/> </g> </g> <g> <g> <path d="M495.304,5.62H272.696v89.044H512V22.315C512,13.098,504.521,5.62,495.304,5.62z"/> </g> </g> </g>
<g id="SVGRepo_iconCarrier"> <g> <g> <path d="M413.4,217.098c-52.807,22.982-43.402,74.765-41.898,114.632l-31.063-28.162c-38.767,17.12-69.482,91.808-33.808,150.306 c20.058,32.882,55.034,52.506,93.562,52.506c43.644,0,84.375-26.765,101.352-66.604C547.152,332.69,418.052,291.521,413.4,217.098 z"/> </g> </g> <g> <g> <rect x="166.957" y="128.056" width="178.087" height="77.913"/> </g> </g> <g> <g> <rect y="239.36" width="239.304" height="77.913"/> </g> </g> <g> <g> <rect y="128.056" width="133.565" height="77.913"/> </g> </g> <g> <g> <path d="M272.696,239.359v77.913h6.926c12.586-20.73,37.175-45.54,58.443-47.01c1.353-10.326,3.827-20.804,8.007-30.903H272.696z"/> </g> </g> <g> <g> <path d="M456.213,239.359c13.436,21.106,36.265,41.914,55.787,68.336v-68.336H456.213z"/> </g> </g> <g> <g> <path d="M264.535,350.663h-97.578v89.043h97.133C255.373,411.469,255.283,380.432,264.535,350.663z"/> </g> </g> <g> <g> <path d="M0,350.663v72.348c0,9.217,7.479,16.696,16.696,16.696h116.87v-89.043H0z"/> </g> </g> <g> <g> <path d="M378.435,128.053v70.567c9.15-6.552,23.677-14.915,34.967-14.915c13.738,0,26.416,8.368,31.352,22.261H512v-77.913 H378.435z"/> </g> </g> <g> <g> <path d="M16.696,5.62C7.479,5.62,0,13.098,0,22.315v72.348h239.304V5.62H16.696z"/> </g> </g> <g> <g> <path d="M495.304,5.62H272.696v89.044H512V22.315C512,13.098,504.521,5.62,495.304,5.62z"/> </g> </g> </g>
</svg>