<!DOCTYPE svg PUBLIC "-//W3C//DTD SVG 1.1//EN" "http://www.w3.org/Graphics/SVG/1.1/DTD/svg11.dtd">
<!-- Uploaded to: SVG Repo, www.svgrepo.com, Transformed by: SVG Repo Mixer Tools -->
<svg width="800px" height="800px" viewBox="-1.6 -1.6 19.20 19.20" xmlns="http://www.w3.org/2000/svg" fill="#2d163a" stroke="#2d163a" stroke-width="0.24">
<g id="SVGRepo_bgCarrier" stroke-width="0" transform="translate(0,0), scale(1)">
<path transform="translate(-1.6, -1.6), scale(0.6)" d="M16,30.350639833137393C18.98674940582441,29.59287728903484,18.910508924139286,25.122678459527688,20.949493155601402,22.81239289486559C22.324973858698684,21.253894715329295,24.888480884741625,21.04476703018814,25.842845132308906,19.19813425045735C26.864825177620002,17.220669297518423,26.516242168544306,14.892781395447011,26.179617812599073,12.692441672563229C25.78033932991695,10.08256425156884,26.016044670655646,6.680282183617877,23.726589345132012,5.365262118455094C21.395593482012497,4.026381950041009,18.66477712421408,7.199162144612666,16,6.845460720360279C12.579531324650379,6.39145478076837,9.848542494472118,1.866857664561674,6.62412596707879,3.0952164924720957C3.621215998333846,4.239191204855182,3.8726719551178137,8.684865729775916,3.030935685332519,11.786095562453214C2.2362637442070863,14.713925120799784,0.725148821140589,17.782161126849285,1.8759074429075522,20.589195863215927C3.0076374470803784,23.349814270770047,6.359028322199075,24.195078390850643,8.813478534336232,25.891398216417606C11.190868764017141,27.534460340788605,13.198826869736365,31.06132017127389,16,30.350639833137393" fill="#472f54" strokewidth="0"/>
</g>
<g id="SVGRepo_tracerCarrier" stroke-linecap="round" stroke-linejoin="round" stroke="#CCCCCC" stroke-width="0.032"/>
<g id="SVGRepo_iconCarrier"> <g fill="#eae8ec"> <path d="m 12 1 c 0.265625 0 0.519531 0.105469 0.707031 0.292969 l 3 3 c 0.390625 0.390625 0.390625 1.023437 0 1.414062 l -3 3 c -0.390625 0.390625 -1.023437 0.390625 -1.414062 0 s -0.390625 -1.023437 0 -1.414062 l 1.292969 -1.292969 h -7.585938 c -0.550781 0 -1 -0.449219 -1 -1 s 0.449219 -1 1 -1 h 7.585938 l -1.292969 -1.292969 c -0.390625 -0.390625 -0.390625 -1.023437 0 -1.414062 c 0.1875 -0.1875 0.441406 -0.292969 0.707031 -0.292969 z m 0 0"/> <path d="m 4 15 c -0.265625 0 -0.519531 -0.105469 -0.707031 -0.292969 l -3 -3 c -0.3906252 -0.390625 -0.3906252 -1.023437 0 -1.414062 l 3 -3 c 0.390625 -0.390625 1.023437 -0.390625 1.414062 0 s 0.390625 1.023437 0 1.414062 l -1.292969 1.292969 h 7.585938 c 0.550781 0 1 0.449219 1 1 s -0.449219 1 -1 1 h -7.585938 l 1.292969 1.292969 c 0.390625 0.390625 0.390625 1.023437 0 1.414062 c -0.1875 0.1875 -0.441406 0.292969 -0.707031 0.292969 z m 0 0" fill-opacity="0.34902"/> </g> </g>
</svg>