<!DOCTYPE svg PUBLIC "-//W3C//DTD SVG 1.1//EN" "http://www.w3.org/Graphics/SVG/1.1/DTD/svg11.dtd">
<!-- Uploaded to: SVG Repo, www.svgrepo.com, Transformed by: SVG Repo Mixer Tools -->
<svg width="800px" height="800px" viewBox="-4.8 -4.8 25.60 25.60" xmlns="http://www.w3.org/2000/svg" fill="#eae8ec" stroke="#eae8ec" stroke-width="0.00016">
<g id="SVGRepo_bgCarrier" stroke-width="0">
<path transform="translate(-4.8, -4.8), scale(0.8)" d="M16,28.279835356133326C19.104707540087535,28.843463852244305,22.5850839210395,30.425589812352698,25.225253229539746,28.697471756906815C27.866363216561655,26.96873798203248,27.692116050205858,23.114936582608333,28.537251568636005,20.07359997127674C29.338217556494598,17.19121350167168,30.583337254669576,14.382781430492496,30.019477350610913,11.444795677895392C29.40767193378913,8.256990364827558,28.02261404258083,4.96691287252043,25.299045286588658,3.2009621898966962C22.6219698359506,1.4651575735864704,19.190139947113195,2.3021104185988173,16,2.3546247237495006C12.873351555847814,2.4060938671780505,9.61996496456813,1.9246157256741985,6.920757891444406,3.503495310203501C4.074269228698963,5.1685260823708985,2.0560517548288875,8.002136550386833,1.002802812216805,11.127115245400486C-0.05827935057891631,14.27533502350178,-0.5091026413576878,17.929052450796217,1.0743837832204939,20.849626687244935C2.580558075914931,23.627606824344344,6.0958528408172015,24.33001573121565,8.924728946895454,25.738275159926133C11.224369715211209,26.883072836879645,13.472477609433813,27.82098903148354,16,28.279835356133326" fill="#472f54" strokewidth="0"/>
</g>
<g id="SVGRepo_tracerCarrier" stroke-linecap="round" stroke-linejoin="round" stroke="#2d163a" stroke-width="0.8640000000000001"> <path d="m 6 0 c -0.554688 0 -1 0.445312 -1 1 v 3 c 0 0.554688 0.445312 1 1 1 h 1 v 2 h -7 v 2 h 2 v 2 h -1 c -0.554688 0 -1 0.445312 -1 1 v 3 c 0 0.554688 0.445312 1 1 1 h 4 c 0.554688 0 1 -0.445312 1 -1 v -3 c 0 -0.554688 -0.445312 -1 -1 -1 h -1 v -2 h 8 v 2 h -1 c -0.554688 0 -1 0.445312 -1 1 v 3 c 0 0.554688 0.445312 1 1 1 h 4 c 0.554688 0 1 -0.445312 1 -1 v -3 c 0 -0.554688 -0.445312 -1 -1 -1 h -1 v -2 h 2 v -2 h -7 v -2 h 1 c 0.554688 0 1 -0.445312 1 -1 v -3 c 0 -0.554688 -0.445312 -1 -1 -1 z m 0 0" fill="#eae8ec"/> </g>
<g id="SVGRepo_iconCarrier"> <path d="m 6 0 c -0.554688 0 -1 0.445312 -1 1 v 3 c 0 0.554688 0.445312 1 1 1 h 1 v 2 h -7 v 2 h 2 v 2 h -1 c -0.554688 0 -1 0.445312 -1 1 v 3 c 0 0.554688 0.445312 1 1 1 h 4 c 0.554688 0 1 -0.445312 1 -1 v -3 c 0 -0.554688 -0.445312 -1 -1 -1 h -1 v -2 h 8 v 2 h -1 c -0.554688 0 -1 0.445312 -1 1 v 3 c 0 0.554688 0.445312 1 1 1 h 4 c 0.554688 0 1 -0.445312 1 -1 v -3 c 0 -0.554688 -0.445312 -1 -1 -1 h -1 v -2 h 2 v -2 h -7 v -2 h 1 c 0.554688 0 1 -0.445312 1 -1 v -3 c 0 -0.554688 -0.445312 -1 -1 -1 z m 0 0" fill="#eae8ec"/> </g>
</svg>