<!DOCTYPE svg PUBLIC "-//W3C//DTD SVG 1.1//EN" "http://www.w3.org/Graphics/SVG/1.1/DTD/svg11.dtd">
<!-- Uploaded to: SVG Repo, www.svgrepo.com, Transformed by: SVG Repo Mixer Tools -->
<svg height="800px" width="800px" version="1.1" id="Layer_1" xmlns="http://www.w3.org/2000/svg" xmlns:xlink="http://www.w3.org/1999/xlink" viewBox="-51.2 -51.2 614.40 614.40" xml:space="preserve" fill="#000000" transform="matrix(1, 0, 0, 1, 0, 0)rotate(0)" stroke="#000000" stroke-width="0.00512">
<g id="SVGRepo_bgCarrier" stroke-width="0" transform="translate(0,0), scale(1)">
<path transform="translate(-51.2, -51.2), scale(19.2)" d="M16,31.291700603440404C18.171905907315463,31.873838707292546,20.313929383541755,30.115434791357934,22.23444020744592,28.945948486412334C24.053150151614865,27.838453362771162,25.93649776078106,26.58324899921782,26.87279287690841,24.67076298216461C27.77897923557556,22.81977742222331,27.4521143178486,20.637053999081694,27.308733625402255,18.581144653614526C27.190520547515288,16.88610909870397,26.193130047268255,15.390075650934296,26.107202049261893,13.693097087913223C25.999763641551905,11.571312815510321,28.128100117455038,9.043719245760743,26.744177019549973,7.43180474146704C25.33326224201464,5.788451871878953,22.397827238547922,7.667160027032272,20.343735357841066,6.980140588395235C18.627526275270554,6.406130724685713,17.80432978184527,3.9770284440956187,16,3.8382661398500204C14.223000733138857,3.701605693742316,12.888563018388066,5.436194514091407,11.322144783775947,6.286333553443237C9.824943963468472,7.098906363800076,7.81303052950406,7.30929698675624,6.925443041991732,8.763282310090744C6.025417760548317,10.237642379672682,7.45046608186617,12.324186190163317,6.6896485990386605,13.874973048451382C5.608158039680816,16.07939314219283,2.0952990618886274,16.80940477490662,1.783150014516087,19.244903235570398C1.5107387901648899,21.370352994778074,3.584502983686487,23.263864843566065,5.326344897729905,24.51195590616929C6.985634474901328,25.70089531269153,9.46794402974168,24.891500790896764,11.191011596788297,25.98596731513733C13.231431442428013,27.28201121913611,13.66517446455392,30.66589498937025,16,31.291700603440404" fill="#6e4c80" strokewidth="0"/>
</g>
<g id="SVGRepo_tracerCarrier" stroke-linecap="round" stroke-linejoin="round" stroke="#CCCCCC" stroke-width="17.408"> <path style="fill:#c1b2c8;" d="M370.638,512c-7.783,0-15.424-1.87-22.424-5.578c-36.03-19.085-59.415-51.183-76.491-74.62 c-5.012-6.882-11.501-15.787-15.725-20.124c-4.225,4.338-10.713,13.243-15.726,20.124c-17.075,23.438-40.458,55.536-76.49,74.62 c-12.083,6.4-26.081,7.325-39.417,2.604c-14.475-5.124-26.247-16.198-32.299-30.384c-10.269-24.071-3.562-48.432,17.506-63.576 c4.888-3.514,10.113-7.456,15.036-11.205c-18.312,4.811-39.781,8.542-55.168,8.542c-29.638,0-53.749-24.111-53.749-53.749 c0-29.638,24.111-53.749,53.749-53.749c27.759,0,60.759-6.518,70.13-24.809c5.648-11.025-0.088-22.953-5.895-31.016 c-21.101-29.304-32.255-61.982-32.255-94.5C101.419,69.344,170.763,0,255.999,0c85.235,0,154.579,69.344,154.579,154.579 c0,32.518-11.154,65.196-32.255,94.5c-5.806,8.064-11.543,19.99-5.895,31.016c9.37,18.293,42.371,24.809,70.13,24.809 c29.638,0,53.749,24.111,53.749,53.749s-24.112,53.749-53.749,53.749c-15.388,0-36.857-3.731-55.168-8.542 c4.92,3.749,10.146,7.691,15.035,11.206c21.069,15.144,27.775,39.505,17.506,63.576c-6.052,14.186-17.824,25.26-32.299,30.384 C382.021,511.014,376.292,512,370.638,512"/> <path style="fill:#d5ccda;" d="M255.999,0v411.678c4.224,4.338,10.713,13.243,15.725,20.124 c17.075,23.438,40.459,55.536,76.491,74.62c7,3.707,14.64,5.578,22.424,5.578c5.654,0,11.383-0.986,16.994-2.973 c14.474-5.124,26.247-16.198,32.299-30.384c3.189-7.475,4.741-14.978,4.734-22.224c-0.016-16.088-7.714-30.91-22.24-41.352 c-4.889-3.515-10.114-7.457-15.035-11.206l0,0l0,0c18.311,4.811,39.78,8.542,55.168,8.542c29.638,0,53.749-24.111,53.749-53.749 c0-29.638-24.112-53.749-53.749-53.749c-27.76,0-60.76-6.518-70.13-24.809c-1.632-3.187-2.313-6.45-2.318-9.672 c-0.008-7.926,4.084-15.611,8.212-21.344c21.101-29.304,32.255-61.982,32.255-94.5C410.579,69.344,341.234,0,255.999,0"/> <g> <path style="fill:#31004a;" d="M183.268,172.404c0-11.512,9.228-20.835,20.568-20.835c11.355,0,20.582,9.323,20.582,20.835 c0,11.51-9.227,20.842-20.582,20.842C192.496,193.245,183.268,183.914,183.268,172.404z"/> <path style="fill:#31004a;" d="M328.729,172.404c0-11.597-9.288-20.998-20.724-20.998c-11.45,0-20.738,9.401-20.738,20.998 c0,11.597,9.288,20.998,20.738,20.998C319.442,193.401,328.729,184.001,328.729,172.404z"/> </g> </g>
<g id="SVGRepo_iconCarrier"> <path style="fill:#c1b2c8;" d="M370.638,512c-7.783,0-15.424-1.87-22.424-5.578c-36.03-19.085-59.415-51.183-76.491-74.62 c-5.012-6.882-11.501-15.787-15.725-20.124c-4.225,4.338-10.713,13.243-15.726,20.124c-17.075,23.438-40.458,55.536-76.49,74.62 c-12.083,6.4-26.081,7.325-39.417,2.604c-14.475-5.124-26.247-16.198-32.299-30.384c-10.269-24.071-3.562-48.432,17.506-63.576 c4.888-3.514,10.113-7.456,15.036-11.205c-18.312,4.811-39.781,8.542-55.168,8.542c-29.638,0-53.749-24.111-53.749-53.749 c0-29.638,24.111-53.749,53.749-53.749c27.759,0,60.759-6.518,70.13-24.809c5.648-11.025-0.088-22.953-5.895-31.016 c-21.101-29.304-32.255-61.982-32.255-94.5C101.419,69.344,170.763,0,255.999,0c85.235,0,154.579,69.344,154.579,154.579 c0,32.518-11.154,65.196-32.255,94.5c-5.806,8.064-11.543,19.99-5.895,31.016c9.37,18.293,42.371,24.809,70.13,24.809 c29.638,0,53.749,24.111,53.749,53.749s-24.112,53.749-53.749,53.749c-15.388,0-36.857-3.731-55.168-8.542 c4.92,3.749,10.146,7.691,15.035,11.206c21.069,15.144,27.775,39.505,17.506,63.576c-6.052,14.186-17.824,25.26-32.299,30.384 C382.021,511.014,376.292,512,370.638,512"/> <path style="fill:#d5ccda;" d="M255.999,0v411.678c4.224,4.338,10.713,13.243,15.725,20.124 c17.075,23.438,40.459,55.536,76.491,74.62c7,3.707,14.64,5.578,22.424,5.578c5.654,0,11.383-0.986,16.994-2.973 c14.474-5.124,26.247-16.198,32.299-30.384c3.189-7.475,4.741-14.978,4.734-22.224c-0.016-16.088-7.714-30.91-22.24-41.352 c-4.889-3.515-10.114-7.457-15.035-11.206l0,0l0,0c18.311,4.811,39.78,8.542,55.168,8.542c29.638,0,53.749-24.111,53.749-53.749 c0-29.638-24.112-53.749-53.749-53.749c-27.76,0-60.76-6.518-70.13-24.809c-1.632-3.187-2.313-6.45-2.318-9.672 c-0.008-7.926,4.084-15.611,8.212-21.344c21.101-29.304,32.255-61.982,32.255-94.5C410.579,69.344,341.234,0,255.999,0"/> <g> <path style="fill:#31004a;" d="M183.268,172.404c0-11.512,9.228-20.835,20.568-20.835c11.355,0,20.582,9.323,20.582,20.835 c0,11.51-9.227,20.842-20.582,20.842C192.496,193.245,183.268,183.914,183.268,172.404z"/> <path style="fill:#31004a;" d="M328.729,172.404c0-11.597-9.288-20.998-20.724-20.998c-11.45,0-20.738,9.401-20.738,20.998 c0,11.597,9.288,20.998,20.738,20.998C319.442,193.401,328.729,184.001,328.729,172.404z"/> </g> </g>
</svg>