<!DOCTYPE svg PUBLIC "-//W3C//DTD SVG 1.1//EN" "http://www.w3.org/Graphics/SVG/1.1/DTD/svg11.dtd">
<!-- Uploaded to: SVG Repo, www.svgrepo.com, Transformed by: SVG Repo Mixer Tools -->
<svg fill="#eae8ec" height="800px" width="800px" version="1.1" xmlns="http://www.w3.org/2000/svg" viewBox="-92.16 -92.16 696.32 696.32" xmlns:xlink="http://www.w3.org/1999/xlink" enable-background="new 0 0 512 512" stroke="#eae8ec" stroke-width="0.00512">
<g id="SVGRepo_bgCarrier" stroke-width="0">
<path transform="translate(-92.16, -92.16), scale(21.76)" d="M16,26.088504177025136C18.15086398275719,25.962209203373213,20.172893912052658,27.254825882053673,22.300000521628295,26.91192099117064C24.964025786252055,26.482460949740137,28.40010468321847,26.27282959980726,29.659741672770295,23.88645553183468C30.933589271386648,21.473159557596272,28.490618588917215,18.69464077054208,28.05980972003411,16C27.706913072120436,13.792687746375433,28.592726510950992,11.305238806493476,27.35112478185198,9.446425051592731C26.116310316368487,7.5977725735901975,23.390764991748288,7.621075812686502,21.59119214840672,6.315771124079383C19.5132950245194,4.808586311700796,18.54624207769719,0.887540290571445,16.000000000000004,1.212984291727052C13.295317882034832,1.5586790620847375,13.061198796522026,5.675598339966763,11.17728285107981,7.646808867536505C9.938912557492777,8.942561242080679,8.280798794987234,9.607848291882707,6.892939747361961,10.742036311613282C4.810498550770289,12.443851680406693,1.7183315387709004,13.420983734184574,0.9558277765617653,15.999999999999996C0.21182208363322108,18.51645025116048,1.6233915992526875,21.283750551012705,3.1438784756450833,23.42248522282084C4.607530157500944,25.481274843460458,6.784438647252244,27.16481121787256,9.257857815745993,27.677732814981333C11.557913923755928,28.154703506964236,13.655047933220583,26.226195663731463,16,26.088504177025136" fill="#472f54" strokewidth="0"/>
</g>
<g id="SVGRepo_tracerCarrier" stroke-linecap="round" stroke-linejoin="round" stroke="#998ca0" stroke-width="20.48"> <g> <g> <path d="m163.3,87c51.1-49.6 134.4-49.7 185.5,0 11.3,11 24.9,3.7 28.9-0.5 7.9-8.1 7.6-21-0.4-28.9-66.9-64.6-175.6-64.6-242.5,0.1-8.1,7.9-8.3,20.8-0.4,28.9 7.8,8.1 20.8,8.3 28.9,0.4z"/> <path d="m180.3,123.6c-8.1,7.9-8.3,20.8-0.4,28.9 7.8,8.1 20.8,8.3 28.9,0.5 26-25.3 67.9-24.7 94.5,0 11.4,10.6 24.9,3.7 28.9-0.5 7.9-8.1 7.6-21-0.4-28.9-41.9-40.4-109.7-40.4-151.5,0z"/> </g> <path d="m399.6,255.8h-123.2v-41c0-11.3-9.1-20.4-20.4-20.4-11.3,0-20.4,9.1-20.4,20.4v41h-123.2c-55.9,0-101.4,45.5-101.4,101.6 0,55.3 44.5,100.4 99.5,101.4v21.8c0,11.3 9.1,20.4 20.4,20.4 11.3,0 20.4-9.1 20.4-20.4v-21.8h209.3v21.8c0,11.3 9.1,20.4 20.4,20.4 11.3,0 20.4-9.1 20.4-20.4v-21.8c55.1-1 99.5-46.1 99.5-101.6 0.1-55.9-45.4-101.4-101.3-101.4zm0,162.2h-287.2c-33.4,0-60.6-27.2-60.6-60.8 0-33.4 27.2-60.6 60.6-60.6h287.2c33.4,0 60.6,27.2 60.6,60.8-5.68434e-14,33.4-27.2,60.6-60.6,60.6z"/> </g> </g>
<g id="SVGRepo_iconCarrier"> <g> <g> <path d="m163.3,87c51.1-49.6 134.4-49.7 185.5,0 11.3,11 24.9,3.7 28.9-0.5 7.9-8.1 7.6-21-0.4-28.9-66.9-64.6-175.6-64.6-242.5,0.1-8.1,7.9-8.3,20.8-0.4,28.9 7.8,8.1 20.8,8.3 28.9,0.4z"/> <path d="m180.3,123.6c-8.1,7.9-8.3,20.8-0.4,28.9 7.8,8.1 20.8,8.3 28.9,0.5 26-25.3 67.9-24.7 94.5,0 11.4,10.6 24.9,3.7 28.9-0.5 7.9-8.1 7.6-21-0.4-28.9-41.9-40.4-109.7-40.4-151.5,0z"/> </g> <path d="m399.6,255.8h-123.2v-41c0-11.3-9.1-20.4-20.4-20.4-11.3,0-20.4,9.1-20.4,20.4v41h-123.2c-55.9,0-101.4,45.5-101.4,101.6 0,55.3 44.5,100.4 99.5,101.4v21.8c0,11.3 9.1,20.4 20.4,20.4 11.3,0 20.4-9.1 20.4-20.4v-21.8h209.3v21.8c0,11.3 9.1,20.4 20.4,20.4 11.3,0 20.4-9.1 20.4-20.4v-21.8c55.1-1 99.5-46.1 99.5-101.6 0.1-55.9-45.4-101.4-101.3-101.4zm0,162.2h-287.2c-33.4,0-60.6-27.2-60.6-60.8 0-33.4 27.2-60.6 60.6-60.6h287.2c33.4,0 60.6,27.2 60.6,60.8-5.68434e-14,33.4-27.2,60.6-60.6,60.6z"/> </g> </g>
</svg>