<!DOCTYPE svg PUBLIC "-//W3C//DTD SVG 1.1//EN" "http://www.w3.org/Graphics/SVG/1.1/DTD/svg11.dtd">
<!-- Uploaded to: SVG Repo, www.svgrepo.com, Transformed by: SVG Repo Mixer Tools -->
<svg width="800px" height="800px" viewBox="-102.4 -102.4 1228.80 1228.80" xmlns="http://www.w3.org/2000/svg" fill="#000000" stroke="#000000" stroke-width="8.192">
<g id="SVGRepo_bgCarrier" stroke-width="0">
<path transform="translate(-102.4, -102.4), scale(38.4)" d="M16,27.769317177589983C18.223132518095888,27.300273056416472,20.367481199039897,26.945669654282263,22.448991851889616,26.03482719661139C24.88823726803779,24.967444578768394,28.221913255165664,24.50186323829845,29.160781364784903,22.010327461751533C30.110987504201425,19.488703213154007,27.21530272206672,17.10986105636883,26.816365644989357,14.444841400337593C26.42100737758786,11.803729269275575,28.432615246305424,8.74905965694411,26.853287286071833,6.595573032311844C25.291073073997715,4.465421793797416,21.938108708695495,5.151142969638249,19.418531094267003,4.357552276508768C16.83362113966548,3.543383873518402,14.522996372917895,1.416557637573007,11.851162725305853,1.8703578373460754C9.11801369039506,2.3345722090606507,6.9401040082812315,4.497008563141861,5.326179145026069,6.751081580084072C3.7956740664370745,8.888647137493198,3.1396082211187712,11.512381428257525,3.065806144760055,14.140343673293332C2.9973928159289027,16.57642208864339,4.231347712975821,18.72164311764427,4.924390721280819,21.058061277549676C5.749864965686198,23.84093765325961,5.045310294928544,27.67865908750554,7.527836513049387,29.182943710508688C10.02709007065439,30.69736425046051,13.140664363118368,28.372589614129186,16,27.769317177589983" fill="#472f54" strokewidth="0"/>
</g>
<g id="SVGRepo_tracerCarrier" stroke-linecap="round" stroke-linejoin="round"/>
<g id="SVGRepo_iconCarrier"> <path fill="#84758d" d="M866.9 169.9L527.1 54.1C523 52.7 517.5 52 512 52s-11 .7-15.1 2.1L157.1 169.9c-8.3 2.8-15.1 12.4-15.1 21.2v482.4c0 8.8 5.7 20.4 12.6 25.9L499.3 968c3.5 2.7 8 4.1 12.6 4.1s9.2-1.4 12.6-4.1l344.7-268.6c6.9-5.4 12.6-17 12.6-25.9V191.1c.2-8.8-6.6-18.3-14.9-21.2zM810 654.3L512 886.5 214 654.3V226.7l298-101.6 298 101.6v427.6z"/> <path fill="#eae8ec" d="M460.7 451.1a80.1 80.1 0 1 0 160.2 0 80.1 80.1 0 1 0-160.2 0z"/> <path fill="#eae8ec" d="M214 226.7v427.6l298 232.2 298-232.2V226.7L512 125.1 214 226.7zm428.7 122.5c56.3 56.3 56.3 147.5 0 203.8-48.5 48.5-123 55.2-178.6 20.1l-77.5 77.5a8.03 8.03 0 0 1-11.3 0l-34-34a8.03 8.03 0 0 1 0-11.3l77.5-77.5c-35.1-55.7-28.4-130.1 20.1-178.6 56.3-56.3 147.5-56.3 203.8 0z"/> <path fill="#84758d" d="M418.8 527.8l-77.5 77.5a8.03 8.03 0 0 0 0 11.3l34 34c3.1 3.1 8.2 3.1 11.3 0l77.5-77.5c55.6 35.1 130.1 28.4 178.6-20.1 56.3-56.3 56.3-147.5 0-203.8-56.3-56.3-147.5-56.3-203.8 0-48.5 48.5-55.2 122.9-20.1 178.6zm65.4-133.3a80.1 80.1 0 0 1 113.3 0 80.1 80.1 0 0 1 0 113.3c-31.3 31.3-82 31.3-113.3 0s-31.3-82 0-113.3z"/> </g>
</svg>